# xmcd CD database file
#
# Track frame offsets:
#	150
#	2070
#	25368
#	40880
#	69370
#	83564
#	105589
#	130402
#	143493
#	170329
#	201785
#
# Disc length: 2865 seconds
#
# Revision: 0
# Processed by: cddbd v1.5.2PL0 Copyright (c) Steve Scherf et al.
# Submitted via: CDex 1.51
#
DISCID=870b2f0b
DTITLE=Good News - Glory
DYEAR=2006
DGENRE=Jazz
TTITLE0=Intro
TTITLE1=Glory
TTITLE2=Music Trick - We Made It Quick
TTITLE3=Seven For Heaven, Eight Was Just Too Late
TTITLE4=My Bicycle Rides 5 Wheel
TTITLE5=We Shuffle With A Small Truffle
TTITLE6=Slepa Buffa
TTITLE7=The Twelve
TTITLE8=My Wife Asked Me Twice, Then She Pummeled Me Nice
TTITLE9=Juda
TTITLE10=Drum Solo - Todah (bonus)
EXTD=YEAR: 2006
EXTT0=
EXTT1=
EXTT2=
EXTT3=
EXTT4=
EXTT5=
EXTT6=
EXTT7=
EXTT8=
EXTT9=
EXTT10=
PLAYORDER=
